<mxfile host="Electron" agent="Mozilla/5.0 (Macintosh; Intel Mac OS X 10_15_7) AppleWebKit/537.36 (KHTML, like Gecko) draw.io/24.7.8 Chrome/128.0.6613.36 Electron/32.0.1 Safari/537.36" version="24.7.8">
  <diagram id="C5RBs43oDa-KdzZeNtuy" name="Page-1">
    <mxGraphModel dx="2658" dy="709" grid="1" gridSize="10" guides="1" tooltips="1" connect="1" arrows="1" fold="1" page="1" pageScale="1" pageWidth="827" pageHeight="1169" math="0" shadow="0">
      <root>
        <mxCell id="WIyWlLk6GJQsqaUBKTNV-0" />
        <mxCell id="WIyWlLk6GJQsqaUBKTNV-1" parent="WIyWlLk6GJQsqaUBKTNV-0" />
        <mxCell id="FHYOacyKZ1QeCpzFmi6C-0" value="Homepage" style="ellipse;whiteSpace=wrap;html=1;fillColor=#fff2cc;strokeColor=#d6b656;" vertex="1" parent="WIyWlLk6GJQsqaUBKTNV-1">
          <mxGeometry x="-473" y="30" width="120" height="80" as="geometry" />
        </mxCell>
        <mxCell id="FHYOacyKZ1QeCpzFmi6C-2" value="" style="endArrow=classic;html=1;rounded=0;exitX=0.5;exitY=1;exitDx=0;exitDy=0;entryX=0.5;entryY=0;entryDx=0;entryDy=0;" edge="1" parent="WIyWlLk6GJQsqaUBKTNV-1" source="FHYOacyKZ1QeCpzFmi6C-0" target="FHYOacyKZ1QeCpzFmi6C-3">
          <mxGeometry width="50" height="50" relative="1" as="geometry">
            <mxPoint x="-410" y="120" as="sourcePoint" />
            <mxPoint x="-413" y="160" as="targetPoint" />
          </mxGeometry>
        </mxCell>
        <mxCell id="FHYOacyKZ1QeCpzFmi6C-3" value="&lt;font color=&quot;#121212&quot;&gt;Buy / Sell&lt;/font&gt;" style="rhombus;whiteSpace=wrap;html=1;fillColor=#e51400;strokeColor=#B20000;fontColor=#ffffff;" vertex="1" parent="WIyWlLk6GJQsqaUBKTNV-1">
          <mxGeometry x="-462" y="160" width="97" height="90" as="geometry" />
        </mxCell>
        <mxCell id="FHYOacyKZ1QeCpzFmi6C-4" value="" style="endArrow=none;html=1;rounded=0;entryX=0;entryY=0.5;entryDx=0;entryDy=0;" edge="1" parent="WIyWlLk6GJQsqaUBKTNV-1" target="FHYOacyKZ1QeCpzFmi6C-3">
          <mxGeometry width="50" height="50" relative="1" as="geometry">
            <mxPoint x="-630" y="210" as="sourcePoint" />
            <mxPoint x="-460" y="210" as="targetPoint" />
          </mxGeometry>
        </mxCell>
        <mxCell id="FHYOacyKZ1QeCpzFmi6C-6" value="" style="endArrow=none;html=1;rounded=0;exitX=1;exitY=0.5;exitDx=0;exitDy=0;" edge="1" parent="WIyWlLk6GJQsqaUBKTNV-1" source="FHYOacyKZ1QeCpzFmi6C-3">
          <mxGeometry width="50" height="50" relative="1" as="geometry">
            <mxPoint x="-370" y="210" as="sourcePoint" />
            <mxPoint x="-180" y="210" as="targetPoint" />
          </mxGeometry>
        </mxCell>
        <mxCell id="FHYOacyKZ1QeCpzFmi6C-7" value="" style="endArrow=classic;html=1;rounded=0;fillColor=#f8cecc;gradientColor=#ea6b66;strokeColor=#121212;" edge="1" parent="WIyWlLk6GJQsqaUBKTNV-1">
          <mxGeometry width="50" height="50" relative="1" as="geometry">
            <mxPoint x="-630" y="210" as="sourcePoint" />
            <mxPoint x="-630" y="260" as="targetPoint" />
          </mxGeometry>
        </mxCell>
        <mxCell id="FHYOacyKZ1QeCpzFmi6C-8" value="" style="endArrow=classic;html=1;rounded=0;" edge="1" parent="WIyWlLk6GJQsqaUBKTNV-1">
          <mxGeometry width="50" height="50" relative="1" as="geometry">
            <mxPoint x="-180" y="210" as="sourcePoint" />
            <mxPoint x="-180" y="260" as="targetPoint" />
          </mxGeometry>
        </mxCell>
        <mxCell id="FHYOacyKZ1QeCpzFmi6C-9" value="If user intends to buy a product" style="text;html=1;align=center;verticalAlign=middle;resizable=0;points=[];autosize=1;strokeColor=#b85450;fillColor=#f8cecc;gradientColor=#ea6b66;" vertex="1" parent="WIyWlLk6GJQsqaUBKTNV-1">
          <mxGeometry x="-652" y="158" width="190" height="30" as="geometry" />
        </mxCell>
        <mxCell id="FHYOacyKZ1QeCpzFmi6C-10" value="If you user intends to sell a product" style="text;html=1;align=center;verticalAlign=middle;resizable=0;points=[];autosize=1;strokeColor=#b85450;fillColor=#f8cecc;gradientColor=#ea6b66;" vertex="1" parent="WIyWlLk6GJQsqaUBKTNV-1">
          <mxGeometry x="-372" y="160" width="210" height="30" as="geometry" />
        </mxCell>
        <mxCell id="FHYOacyKZ1QeCpzFmi6C-14" value="" style="edgeStyle=orthogonalEdgeStyle;rounded=0;orthogonalLoop=1;jettySize=auto;html=1;" edge="1" parent="WIyWlLk6GJQsqaUBKTNV-1" source="FHYOacyKZ1QeCpzFmi6C-11" target="FHYOacyKZ1QeCpzFmi6C-13">
          <mxGeometry relative="1" as="geometry" />
        </mxCell>
        <mxCell id="FHYOacyKZ1QeCpzFmi6C-11" value="&lt;font color=&quot;#121212&quot;&gt;Browse Category&lt;/font&gt;" style="rounded=0;whiteSpace=wrap;html=1;fillColor=#00FF00;fontColor=#ffffff;strokeColor=#3A5431;" vertex="1" parent="WIyWlLk6GJQsqaUBKTNV-1">
          <mxGeometry x="-690" y="260" width="120" height="60" as="geometry" />
        </mxCell>
        <mxCell id="FHYOacyKZ1QeCpzFmi6C-16" value="" style="edgeStyle=orthogonalEdgeStyle;rounded=0;orthogonalLoop=1;jettySize=auto;html=1;" edge="1" parent="WIyWlLk6GJQsqaUBKTNV-1" source="FHYOacyKZ1QeCpzFmi6C-13" target="FHYOacyKZ1QeCpzFmi6C-15">
          <mxGeometry relative="1" as="geometry" />
        </mxCell>
        <mxCell id="FHYOacyKZ1QeCpzFmi6C-13" value="Select Product" style="rounded=0;whiteSpace=wrap;html=1;fillColor=#00FF00;" vertex="1" parent="WIyWlLk6GJQsqaUBKTNV-1">
          <mxGeometry x="-690" y="400" width="120" height="60" as="geometry" />
        </mxCell>
        <mxCell id="FHYOacyKZ1QeCpzFmi6C-19" style="edgeStyle=orthogonalEdgeStyle;rounded=0;orthogonalLoop=1;jettySize=auto;html=1;exitX=1;exitY=0.5;exitDx=0;exitDy=0;" edge="1" parent="WIyWlLk6GJQsqaUBKTNV-1">
          <mxGeometry relative="1" as="geometry">
            <mxPoint x="-506" y="585" as="targetPoint" />
            <mxPoint x="-663" y="555" as="sourcePoint" />
            <Array as="points">
              <mxPoint x="-663" y="545" />
              <mxPoint x="-505" y="545" />
            </Array>
          </mxGeometry>
        </mxCell>
        <mxCell id="FHYOacyKZ1QeCpzFmi6C-15" value="Do you want to add to cart?" style="rhombus;whiteSpace=wrap;html=1;rounded=0;fillColor=#e51400;fontColor=#ffffff;strokeColor=#B20000;" vertex="1" parent="WIyWlLk6GJQsqaUBKTNV-1">
          <mxGeometry x="-680" y="510" width="100" height="80" as="geometry" />
        </mxCell>
        <mxCell id="FHYOacyKZ1QeCpzFmi6C-22" value="" style="edgeStyle=orthogonalEdgeStyle;rounded=0;orthogonalLoop=1;jettySize=auto;html=1;" edge="1" parent="WIyWlLk6GJQsqaUBKTNV-1" source="FHYOacyKZ1QeCpzFmi6C-20" target="FHYOacyKZ1QeCpzFmi6C-26">
          <mxGeometry relative="1" as="geometry">
            <mxPoint x="-780" y="740" as="targetPoint" />
            <Array as="points">
              <mxPoint x="-920" y="660" />
            </Array>
          </mxGeometry>
        </mxCell>
        <mxCell id="FHYOacyKZ1QeCpzFmi6C-25" value="" style="edgeStyle=orthogonalEdgeStyle;rounded=0;orthogonalLoop=1;jettySize=auto;html=1;" edge="1" parent="WIyWlLk6GJQsqaUBKTNV-1" source="FHYOacyKZ1QeCpzFmi6C-20" target="FHYOacyKZ1QeCpzFmi6C-27">
          <mxGeometry relative="1" as="geometry">
            <mxPoint x="-510" y="750" as="targetPoint" />
            <Array as="points">
              <mxPoint x="-580" y="660" />
              <mxPoint x="-580" y="750" />
            </Array>
          </mxGeometry>
        </mxCell>
        <mxCell id="FHYOacyKZ1QeCpzFmi6C-20" value="&lt;font color=&quot;#ffffff&quot;&gt;Proceed to make payment?&lt;/font&gt;" style="rhombus;whiteSpace=wrap;html=1;fillColor=#FF2919;" vertex="1" parent="WIyWlLk6GJQsqaUBKTNV-1">
          <mxGeometry x="-827" y="600" width="130" height="120" as="geometry" />
        </mxCell>
        <mxCell id="FHYOacyKZ1QeCpzFmi6C-56" value="" style="edgeStyle=orthogonalEdgeStyle;rounded=0;orthogonalLoop=1;jettySize=auto;html=1;" edge="1" parent="WIyWlLk6GJQsqaUBKTNV-1" source="FHYOacyKZ1QeCpzFmi6C-26" target="FHYOacyKZ1QeCpzFmi6C-55">
          <mxGeometry relative="1" as="geometry" />
        </mxCell>
        <mxCell id="FHYOacyKZ1QeCpzFmi6C-26" value="Enter Account Details" style="shape=parallelogram;perimeter=parallelogramPerimeter;whiteSpace=wrap;html=1;fixedSize=1;fillColor=#d5e8d4;strokeColor=#82b366;gradientColor=#97d077;" vertex="1" parent="WIyWlLk6GJQsqaUBKTNV-1">
          <mxGeometry x="-1000" y="700" width="150" height="70" as="geometry" />
        </mxCell>
        <mxCell id="FHYOacyKZ1QeCpzFmi6C-27" value="View Other Products" style="rounded=0;whiteSpace=wrap;html=1;fillColor=#00FF00;" vertex="1" parent="WIyWlLk6GJQsqaUBKTNV-1">
          <mxGeometry x="-670" y="730" width="120" height="60" as="geometry" />
        </mxCell>
        <mxCell id="FHYOacyKZ1QeCpzFmi6C-28" value="View Other Products" style="rounded=0;whiteSpace=wrap;html=1;fillColor=#00FF00;" vertex="1" parent="WIyWlLk6GJQsqaUBKTNV-1">
          <mxGeometry x="-560" y="585" width="120" height="60" as="geometry" />
        </mxCell>
        <mxCell id="FHYOacyKZ1QeCpzFmi6C-32" value="" style="edgeStyle=orthogonalEdgeStyle;rounded=0;orthogonalLoop=1;jettySize=auto;html=1;" edge="1" parent="WIyWlLk6GJQsqaUBKTNV-1" source="FHYOacyKZ1QeCpzFmi6C-30" target="FHYOacyKZ1QeCpzFmi6C-31">
          <mxGeometry relative="1" as="geometry" />
        </mxCell>
        <mxCell id="FHYOacyKZ1QeCpzFmi6C-34" value="" style="edgeStyle=orthogonalEdgeStyle;rounded=0;orthogonalLoop=1;jettySize=auto;html=1;" edge="1" parent="WIyWlLk6GJQsqaUBKTNV-1" source="FHYOacyKZ1QeCpzFmi6C-30" target="FHYOacyKZ1QeCpzFmi6C-33">
          <mxGeometry relative="1" as="geometry" />
        </mxCell>
        <mxCell id="FHYOacyKZ1QeCpzFmi6C-30" value="&lt;font color=&quot;#121212&quot;&gt;Is Seller&amp;nbsp;&lt;/font&gt;&lt;div&gt;&lt;font color=&quot;#121212&quot;&gt;Registered?&lt;/font&gt;&lt;/div&gt;" style="rhombus;whiteSpace=wrap;html=1;fillColor=#e51400;fontColor=#ffffff;strokeColor=#B20000;" vertex="1" parent="WIyWlLk6GJQsqaUBKTNV-1">
          <mxGeometry x="-250" y="260" width="130" height="110" as="geometry" />
        </mxCell>
        <mxCell id="FHYOacyKZ1QeCpzFmi6C-31" value="Sign in" style="whiteSpace=wrap;html=1;fillColor=#00FF00;" vertex="1" parent="WIyWlLk6GJQsqaUBKTNV-1">
          <mxGeometry x="-380" y="330" width="120" height="60" as="geometry" />
        </mxCell>
        <mxCell id="FHYOacyKZ1QeCpzFmi6C-45" value="" style="edgeStyle=orthogonalEdgeStyle;rounded=0;orthogonalLoop=1;jettySize=auto;html=1;" edge="1" parent="WIyWlLk6GJQsqaUBKTNV-1" source="FHYOacyKZ1QeCpzFmi6C-33" target="FHYOacyKZ1QeCpzFmi6C-44">
          <mxGeometry relative="1" as="geometry" />
        </mxCell>
        <mxCell id="FHYOacyKZ1QeCpzFmi6C-33" value="Sign up" style="whiteSpace=wrap;html=1;fillColor=#00FF00;" vertex="1" parent="WIyWlLk6GJQsqaUBKTNV-1">
          <mxGeometry x="-110" y="340" width="120" height="60" as="geometry" />
        </mxCell>
        <mxCell id="FHYOacyKZ1QeCpzFmi6C-39" style="edgeStyle=orthogonalEdgeStyle;rounded=0;orthogonalLoop=1;jettySize=auto;html=1;entryX=0.446;entryY=0.025;entryDx=0;entryDy=0;entryPerimeter=0;" edge="1" parent="WIyWlLk6GJQsqaUBKTNV-1" target="FHYOacyKZ1QeCpzFmi6C-20">
          <mxGeometry relative="1" as="geometry">
            <mxPoint x="-768" y="590" as="targetPoint" />
            <mxPoint x="-680" y="550" as="sourcePoint" />
            <Array as="points">
              <mxPoint x="-768" y="550" />
            </Array>
          </mxGeometry>
        </mxCell>
        <mxCell id="FHYOacyKZ1QeCpzFmi6C-43" value="" style="edgeStyle=orthogonalEdgeStyle;rounded=0;orthogonalLoop=1;jettySize=auto;html=1;" edge="1" parent="WIyWlLk6GJQsqaUBKTNV-1" source="FHYOacyKZ1QeCpzFmi6C-40" target="FHYOacyKZ1QeCpzFmi6C-42">
          <mxGeometry relative="1" as="geometry">
            <Array as="points">
              <mxPoint x="-310" y="555" />
            </Array>
          </mxGeometry>
        </mxCell>
        <mxCell id="FHYOacyKZ1QeCpzFmi6C-40" value="Enter Credentials" style="shape=parallelogram;perimeter=parallelogramPerimeter;whiteSpace=wrap;html=1;fixedSize=1;fillColor=#d5e8d4;gradientColor=#97d077;strokeColor=#82b366;" vertex="1" parent="WIyWlLk6GJQsqaUBKTNV-1">
          <mxGeometry x="-389" y="430" width="138" height="60" as="geometry" />
        </mxCell>
        <mxCell id="FHYOacyKZ1QeCpzFmi6C-41" value="" style="endArrow=classic;html=1;rounded=0;exitX=0.5;exitY=1;exitDx=0;exitDy=0;" edge="1" parent="WIyWlLk6GJQsqaUBKTNV-1" source="FHYOacyKZ1QeCpzFmi6C-31" target="FHYOacyKZ1QeCpzFmi6C-40">
          <mxGeometry width="50" height="50" relative="1" as="geometry">
            <mxPoint x="-320" y="400" as="sourcePoint" />
            <mxPoint x="-280" y="360" as="targetPoint" />
          </mxGeometry>
        </mxCell>
        <mxCell id="FHYOacyKZ1QeCpzFmi6C-50" value="" style="edgeStyle=orthogonalEdgeStyle;rounded=0;orthogonalLoop=1;jettySize=auto;html=1;" edge="1" parent="WIyWlLk6GJQsqaUBKTNV-1" source="FHYOacyKZ1QeCpzFmi6C-42" target="FHYOacyKZ1QeCpzFmi6C-49">
          <mxGeometry relative="1" as="geometry" />
        </mxCell>
        <mxCell id="FHYOacyKZ1QeCpzFmi6C-42" value="Proceed to sell Interface" style="whiteSpace=wrap;html=1;fillColor=#00FF00;" vertex="1" parent="WIyWlLk6GJQsqaUBKTNV-1">
          <mxGeometry x="-245" y="525" width="120" height="60" as="geometry" />
        </mxCell>
        <mxCell id="FHYOacyKZ1QeCpzFmi6C-44" value="Enter Credentials" style="shape=parallelogram;perimeter=parallelogramPerimeter;whiteSpace=wrap;html=1;fixedSize=1;fillColor=#d5e8d4;gradientColor=#97d077;strokeColor=#82b366;" vertex="1" parent="WIyWlLk6GJQsqaUBKTNV-1">
          <mxGeometry x="-110" y="430" width="120" height="60" as="geometry" />
        </mxCell>
        <mxCell id="FHYOacyKZ1QeCpzFmi6C-48" value="" style="endArrow=classic;html=1;rounded=0;entryX=1;entryY=0.5;entryDx=0;entryDy=0;exitX=0.5;exitY=1;exitDx=0;exitDy=0;" edge="1" parent="WIyWlLk6GJQsqaUBKTNV-1" source="FHYOacyKZ1QeCpzFmi6C-44" target="FHYOacyKZ1QeCpzFmi6C-42">
          <mxGeometry width="50" height="50" relative="1" as="geometry">
            <mxPoint x="-50" y="500" as="sourcePoint" />
            <mxPoint x="-90" y="570" as="targetPoint" />
            <Array as="points">
              <mxPoint x="-50" y="555" />
            </Array>
          </mxGeometry>
        </mxCell>
        <mxCell id="FHYOacyKZ1QeCpzFmi6C-52" value="" style="edgeStyle=orthogonalEdgeStyle;rounded=0;orthogonalLoop=1;jettySize=auto;html=1;" edge="1" parent="WIyWlLk6GJQsqaUBKTNV-1" source="FHYOacyKZ1QeCpzFmi6C-49" target="FHYOacyKZ1QeCpzFmi6C-51">
          <mxGeometry relative="1" as="geometry" />
        </mxCell>
        <mxCell id="FHYOacyKZ1QeCpzFmi6C-54" value="" style="edgeStyle=orthogonalEdgeStyle;rounded=0;orthogonalLoop=1;jettySize=auto;html=1;" edge="1" parent="WIyWlLk6GJQsqaUBKTNV-1" source="FHYOacyKZ1QeCpzFmi6C-49" target="FHYOacyKZ1QeCpzFmi6C-53">
          <mxGeometry relative="1" as="geometry" />
        </mxCell>
        <mxCell id="FHYOacyKZ1QeCpzFmi6C-49" value="List new product or Manage existing products?" style="rhombus;whiteSpace=wrap;html=1;fillColor=#e51400;fontColor=#ffffff;strokeColor=#B20000;" vertex="1" parent="WIyWlLk6GJQsqaUBKTNV-1">
          <mxGeometry x="-257.5" y="620" width="145" height="125" as="geometry" />
        </mxCell>
        <mxCell id="FHYOacyKZ1QeCpzFmi6C-65" value="" style="edgeStyle=orthogonalEdgeStyle;rounded=0;orthogonalLoop=1;jettySize=auto;html=1;" edge="1" parent="WIyWlLk6GJQsqaUBKTNV-1" source="FHYOacyKZ1QeCpzFmi6C-51" target="FHYOacyKZ1QeCpzFmi6C-66">
          <mxGeometry relative="1" as="geometry">
            <mxPoint x="-328" y="855" as="targetPoint" />
          </mxGeometry>
        </mxCell>
        <mxCell id="FHYOacyKZ1QeCpzFmi6C-51" value="Add a product info" style="whiteSpace=wrap;html=1;fillColor=#00FF00;" vertex="1" parent="WIyWlLk6GJQsqaUBKTNV-1">
          <mxGeometry x="-388" y="770" width="120" height="60" as="geometry" />
        </mxCell>
        <mxCell id="FHYOacyKZ1QeCpzFmi6C-81" value="" style="edgeStyle=orthogonalEdgeStyle;rounded=0;orthogonalLoop=1;jettySize=auto;html=1;" edge="1" parent="WIyWlLk6GJQsqaUBKTNV-1" source="FHYOacyKZ1QeCpzFmi6C-53" target="FHYOacyKZ1QeCpzFmi6C-80">
          <mxGeometry relative="1" as="geometry" />
        </mxCell>
        <mxCell id="FHYOacyKZ1QeCpzFmi6C-53" value="Product Catalog" style="whiteSpace=wrap;html=1;fillColor=#00FF00;" vertex="1" parent="WIyWlLk6GJQsqaUBKTNV-1">
          <mxGeometry x="60" y="750" width="120" height="60" as="geometry" />
        </mxCell>
        <mxCell id="FHYOacyKZ1QeCpzFmi6C-58" value="" style="edgeStyle=orthogonalEdgeStyle;rounded=0;orthogonalLoop=1;jettySize=auto;html=1;" edge="1" parent="WIyWlLk6GJQsqaUBKTNV-1" source="FHYOacyKZ1QeCpzFmi6C-55">
          <mxGeometry relative="1" as="geometry">
            <mxPoint x="-567.5" y="1020" as="targetPoint" />
          </mxGeometry>
        </mxCell>
        <mxCell id="FHYOacyKZ1QeCpzFmi6C-104" value="" style="edgeStyle=orthogonalEdgeStyle;rounded=0;orthogonalLoop=1;jettySize=auto;html=1;" edge="1" parent="WIyWlLk6GJQsqaUBKTNV-1" source="FHYOacyKZ1QeCpzFmi6C-55" target="FHYOacyKZ1QeCpzFmi6C-103">
          <mxGeometry relative="1" as="geometry" />
        </mxCell>
        <mxCell id="FHYOacyKZ1QeCpzFmi6C-55" value="Make Payment" style="whiteSpace=wrap;html=1;fillColor=#00FF00;" vertex="1" parent="WIyWlLk6GJQsqaUBKTNV-1">
          <mxGeometry x="-985" y="800" width="120" height="60" as="geometry" />
        </mxCell>
        <mxCell id="FHYOacyKZ1QeCpzFmi6C-61" value="" style="edgeStyle=orthogonalEdgeStyle;rounded=0;orthogonalLoop=1;jettySize=auto;html=1;" edge="1" parent="WIyWlLk6GJQsqaUBKTNV-1" source="FHYOacyKZ1QeCpzFmi6C-59" target="FHYOacyKZ1QeCpzFmi6C-60">
          <mxGeometry relative="1" as="geometry" />
        </mxCell>
        <mxCell id="FHYOacyKZ1QeCpzFmi6C-63" value="" style="edgeStyle=orthogonalEdgeStyle;rounded=0;orthogonalLoop=1;jettySize=auto;html=1;exitX=1;exitY=0.462;exitDx=0;exitDy=0;exitPerimeter=0;" edge="1" parent="WIyWlLk6GJQsqaUBKTNV-1" source="FHYOacyKZ1QeCpzFmi6C-59">
          <mxGeometry relative="1" as="geometry">
            <mxPoint x="-530" y="1150" as="sourcePoint" />
            <mxPoint x="-230" y="1200" as="targetPoint" />
            <Array as="points">
              <mxPoint x="-530" y="1080" />
              <mxPoint x="-530" y="1090" />
              <mxPoint x="-540" y="1090" />
              <mxPoint x="-540" y="1080" />
              <mxPoint x="-230" y="1080" />
            </Array>
          </mxGeometry>
        </mxCell>
        <mxCell id="FHYOacyKZ1QeCpzFmi6C-59" value="Go back to homepage/Log out" style="rhombus;whiteSpace=wrap;html=1;fillColor=#e51400;fontColor=#ffffff;strokeColor=#B20000;" vertex="1" parent="WIyWlLk6GJQsqaUBKTNV-1">
          <mxGeometry x="-613" y="1022.5" width="140" height="130" as="geometry" />
        </mxCell>
        <mxCell id="FHYOacyKZ1QeCpzFmi6C-60" value="Return to Homepage" style="whiteSpace=wrap;html=1;fillColor=#00FF00;" vertex="1" parent="WIyWlLk6GJQsqaUBKTNV-1">
          <mxGeometry x="-780" y="1110" width="120" height="60" as="geometry" />
        </mxCell>
        <mxCell id="FHYOacyKZ1QeCpzFmi6C-74" value="" style="edgeStyle=orthogonalEdgeStyle;rounded=0;orthogonalLoop=1;jettySize=auto;html=1;" edge="1" parent="WIyWlLk6GJQsqaUBKTNV-1">
          <mxGeometry relative="1" as="geometry">
            <mxPoint x="-230" y="1240" as="sourcePoint" />
            <mxPoint x="-358" y="1320" as="targetPoint" />
            <Array as="points">
              <mxPoint x="-260" y="1240" />
              <mxPoint x="-260" y="1241" />
              <mxPoint x="-358" y="1241" />
            </Array>
          </mxGeometry>
        </mxCell>
        <mxCell id="FHYOacyKZ1QeCpzFmi6C-68" value="" style="edgeStyle=orthogonalEdgeStyle;rounded=0;orthogonalLoop=1;jettySize=auto;html=1;" edge="1" parent="WIyWlLk6GJQsqaUBKTNV-1" source="FHYOacyKZ1QeCpzFmi6C-66" target="FHYOacyKZ1QeCpzFmi6C-67">
          <mxGeometry relative="1" as="geometry" />
        </mxCell>
        <mxCell id="FHYOacyKZ1QeCpzFmi6C-70" value="" style="edgeStyle=orthogonalEdgeStyle;rounded=0;orthogonalLoop=1;jettySize=auto;html=1;" edge="1" parent="WIyWlLk6GJQsqaUBKTNV-1" source="FHYOacyKZ1QeCpzFmi6C-66" target="FHYOacyKZ1QeCpzFmi6C-69">
          <mxGeometry relative="1" as="geometry" />
        </mxCell>
        <mxCell id="FHYOacyKZ1QeCpzFmi6C-66" value="Submit / Edit" style="rhombus;whiteSpace=wrap;html=1;fillColor=#e51400;fontColor=#ffffff;strokeColor=#B20000;" vertex="1" parent="WIyWlLk6GJQsqaUBKTNV-1">
          <mxGeometry x="-372" y="860" width="88" height="90" as="geometry" />
        </mxCell>
        <mxCell id="FHYOacyKZ1QeCpzFmi6C-67" value="Submit and Return to homepage" style="whiteSpace=wrap;html=1;fillColor=#00FF00;" vertex="1" parent="WIyWlLk6GJQsqaUBKTNV-1">
          <mxGeometry x="-517" y="907.5" width="104" height="75" as="geometry" />
        </mxCell>
        <mxCell id="FHYOacyKZ1QeCpzFmi6C-69" value="Confirm Changes" style="whiteSpace=wrap;html=1;fillColor=#00FF00;" vertex="1" parent="WIyWlLk6GJQsqaUBKTNV-1">
          <mxGeometry x="-230" y="930" width="120" height="60" as="geometry" />
        </mxCell>
        <mxCell id="FHYOacyKZ1QeCpzFmi6C-72" value="" style="edgeStyle=orthogonalEdgeStyle;rounded=0;orthogonalLoop=1;jettySize=auto;html=1;exitX=0;exitY=0.75;exitDx=0;exitDy=0;" edge="1" parent="WIyWlLk6GJQsqaUBKTNV-1" source="FHYOacyKZ1QeCpzFmi6C-69">
          <mxGeometry relative="1" as="geometry">
            <mxPoint x="-290" y="975" as="sourcePoint" />
            <mxPoint x="-410" y="970" as="targetPoint" />
          </mxGeometry>
        </mxCell>
        <mxCell id="FHYOacyKZ1QeCpzFmi6C-73" value="Browser interface" style="ellipse;whiteSpace=wrap;html=1;fillColor=#ffe6cc;strokeColor=#d79b00;" vertex="1" parent="WIyWlLk6GJQsqaUBKTNV-1">
          <mxGeometry x="-440" y="1330" width="140" height="80" as="geometry" />
        </mxCell>
        <mxCell id="FHYOacyKZ1QeCpzFmi6C-75" value="" style="endArrow=classic;html=1;rounded=0;exitX=0.423;exitY=1.02;exitDx=0;exitDy=0;exitPerimeter=0;" edge="1" parent="WIyWlLk6GJQsqaUBKTNV-1" source="FHYOacyKZ1QeCpzFmi6C-67">
          <mxGeometry width="50" height="50" relative="1" as="geometry">
            <mxPoint x="-473" y="1020" as="sourcePoint" />
            <mxPoint x="-220" y="1190" as="targetPoint" />
            <Array as="points">
              <mxPoint x="-473" y="1030" />
              <mxPoint x="-220" y="1030" />
            </Array>
          </mxGeometry>
        </mxCell>
        <mxCell id="FHYOacyKZ1QeCpzFmi6C-76" value="If seller isn&#39;t registered on the platform" style="text;html=1;align=center;verticalAlign=middle;resizable=0;points=[];autosize=1;strokeColor=#b85450;fillColor=#f8cecc;gradientColor=#ea6b66;" vertex="1" parent="WIyWlLk6GJQsqaUBKTNV-1">
          <mxGeometry x="-130" y="250" width="230" height="30" as="geometry" />
        </mxCell>
        <mxCell id="FHYOacyKZ1QeCpzFmi6C-77" value="If seller is already registered on the platform" style="text;html=1;align=center;verticalAlign=middle;resizable=0;points=[];autosize=1;strokeColor=#b85450;fillColor=#f8cecc;gradientColor=#ea6b66;" vertex="1" parent="WIyWlLk6GJQsqaUBKTNV-1">
          <mxGeometry x="-500" y="268" width="260" height="30" as="geometry" />
        </mxCell>
        <mxCell id="FHYOacyKZ1QeCpzFmi6C-78" value="If user is interested in the product" style="text;html=1;align=center;verticalAlign=middle;resizable=0;points=[];autosize=1;strokeColor=#b85450;fillColor=#f8cecc;gradientColor=#ea6b66;" vertex="1" parent="WIyWlLk6GJQsqaUBKTNV-1">
          <mxGeometry x="-897" y="510" width="200" height="30" as="geometry" />
        </mxCell>
        <mxCell id="FHYOacyKZ1QeCpzFmi6C-79" value="If user isn&#39;t interested in the product" style="text;html=1;align=center;verticalAlign=middle;resizable=0;points=[];autosize=1;strokeColor=#b85450;fillColor=#f8cecc;gradientColor=#ea6b66;" vertex="1" parent="WIyWlLk6GJQsqaUBKTNV-1">
          <mxGeometry x="-582" y="510" width="210" height="30" as="geometry" />
        </mxCell>
        <mxCell id="FHYOacyKZ1QeCpzFmi6C-83" value="" style="edgeStyle=orthogonalEdgeStyle;rounded=0;orthogonalLoop=1;jettySize=auto;html=1;" edge="1" parent="WIyWlLk6GJQsqaUBKTNV-1" source="FHYOacyKZ1QeCpzFmi6C-80" target="FHYOacyKZ1QeCpzFmi6C-82">
          <mxGeometry relative="1" as="geometry" />
        </mxCell>
        <mxCell id="FHYOacyKZ1QeCpzFmi6C-80" value="browse products" style="whiteSpace=wrap;html=1;fillColor=#00FF00;" vertex="1" parent="WIyWlLk6GJQsqaUBKTNV-1">
          <mxGeometry x="60" y="840" width="120" height="60" as="geometry" />
        </mxCell>
        <mxCell id="FHYOacyKZ1QeCpzFmi6C-87" value="" style="edgeStyle=orthogonalEdgeStyle;rounded=0;orthogonalLoop=1;jettySize=auto;html=1;" edge="1" parent="WIyWlLk6GJQsqaUBKTNV-1" source="FHYOacyKZ1QeCpzFmi6C-82" target="FHYOacyKZ1QeCpzFmi6C-86">
          <mxGeometry relative="1" as="geometry" />
        </mxCell>
        <mxCell id="FHYOacyKZ1QeCpzFmi6C-82" value="Select product" style="whiteSpace=wrap;html=1;fillColor=#00FF00;" vertex="1" parent="WIyWlLk6GJQsqaUBKTNV-1">
          <mxGeometry x="60" y="930" width="120" height="60" as="geometry" />
        </mxCell>
        <mxCell id="FHYOacyKZ1QeCpzFmi6C-89" value="" style="edgeStyle=orthogonalEdgeStyle;rounded=0;orthogonalLoop=1;jettySize=auto;html=1;" edge="1" parent="WIyWlLk6GJQsqaUBKTNV-1" source="FHYOacyKZ1QeCpzFmi6C-86" target="FHYOacyKZ1QeCpzFmi6C-88">
          <mxGeometry relative="1" as="geometry" />
        </mxCell>
        <mxCell id="FHYOacyKZ1QeCpzFmi6C-91" value="" style="edgeStyle=orthogonalEdgeStyle;rounded=0;orthogonalLoop=1;jettySize=auto;html=1;" edge="1" parent="WIyWlLk6GJQsqaUBKTNV-1" source="FHYOacyKZ1QeCpzFmi6C-86" target="FHYOacyKZ1QeCpzFmi6C-90">
          <mxGeometry relative="1" as="geometry" />
        </mxCell>
        <mxCell id="FHYOacyKZ1QeCpzFmi6C-86" value="Update product?" style="rhombus;whiteSpace=wrap;html=1;fillColor=#FF2919;" vertex="1" parent="WIyWlLk6GJQsqaUBKTNV-1">
          <mxGeometry x="75" y="1030" width="90" height="80" as="geometry" />
        </mxCell>
        <mxCell id="FHYOacyKZ1QeCpzFmi6C-88" value="Return to browse products" style="whiteSpace=wrap;html=1;fillColor=#00FF00;" vertex="1" parent="WIyWlLk6GJQsqaUBKTNV-1">
          <mxGeometry x="180" y="1120" width="120" height="60" as="geometry" />
        </mxCell>
        <mxCell id="FHYOacyKZ1QeCpzFmi6C-95" value="" style="edgeStyle=orthogonalEdgeStyle;rounded=0;orthogonalLoop=1;jettySize=auto;html=1;" edge="1" parent="WIyWlLk6GJQsqaUBKTNV-1" source="FHYOacyKZ1QeCpzFmi6C-90" target="FHYOacyKZ1QeCpzFmi6C-94">
          <mxGeometry relative="1" as="geometry" />
        </mxCell>
        <mxCell id="FHYOacyKZ1QeCpzFmi6C-90" value="Update product details" style="whiteSpace=wrap;html=1;fillColor=#00FF00;" vertex="1" parent="WIyWlLk6GJQsqaUBKTNV-1">
          <mxGeometry x="-110" y="1040" width="120" height="60" as="geometry" />
        </mxCell>
        <mxCell id="FHYOacyKZ1QeCpzFmi6C-97" value="" style="edgeStyle=orthogonalEdgeStyle;rounded=0;orthogonalLoop=1;jettySize=auto;html=1;entryX=0;entryY=0.5;entryDx=0;entryDy=0;" edge="1" parent="WIyWlLk6GJQsqaUBKTNV-1" source="FHYOacyKZ1QeCpzFmi6C-94" target="FHYOacyKZ1QeCpzFmi6C-88">
          <mxGeometry relative="1" as="geometry">
            <mxPoint x="140" y="1150" as="targetPoint" />
          </mxGeometry>
        </mxCell>
        <mxCell id="FHYOacyKZ1QeCpzFmi6C-94" value="Save Changes" style="whiteSpace=wrap;html=1;fillColor=#00FF00;" vertex="1" parent="WIyWlLk6GJQsqaUBKTNV-1">
          <mxGeometry x="-110" y="1120" width="120" height="60" as="geometry" />
        </mxCell>
        <mxCell id="FHYOacyKZ1QeCpzFmi6C-100" value="" style="edgeStyle=orthogonalEdgeStyle;rounded=0;orthogonalLoop=1;jettySize=auto;html=1;" edge="1" parent="WIyWlLk6GJQsqaUBKTNV-1" source="FHYOacyKZ1QeCpzFmi6C-98" target="FHYOacyKZ1QeCpzFmi6C-99">
          <mxGeometry relative="1" as="geometry" />
        </mxCell>
        <mxCell id="FHYOacyKZ1QeCpzFmi6C-98" value="Log out?" style="rhombus;whiteSpace=wrap;html=1;fillColor=#FF2919;" vertex="1" parent="WIyWlLk6GJQsqaUBKTNV-1">
          <mxGeometry x="-260" y="1200" width="80" height="80" as="geometry" />
        </mxCell>
        <mxCell id="FHYOacyKZ1QeCpzFmi6C-99" value="Return to Homepage" style="whiteSpace=wrap;html=1;fillColor=#00FF00;" vertex="1" parent="WIyWlLk6GJQsqaUBKTNV-1">
          <mxGeometry x="-150" y="1290" width="120" height="60" as="geometry" />
        </mxCell>
        <mxCell id="FHYOacyKZ1QeCpzFmi6C-106" value="" style="edgeStyle=orthogonalEdgeStyle;rounded=0;orthogonalLoop=1;jettySize=auto;html=1;" edge="1" parent="WIyWlLk6GJQsqaUBKTNV-1" source="FHYOacyKZ1QeCpzFmi6C-103" target="FHYOacyKZ1QeCpzFmi6C-105">
          <mxGeometry relative="1" as="geometry" />
        </mxCell>
        <mxCell id="FHYOacyKZ1QeCpzFmi6C-110" value="" style="edgeStyle=orthogonalEdgeStyle;rounded=0;orthogonalLoop=1;jettySize=auto;html=1;" edge="1" parent="WIyWlLk6GJQsqaUBKTNV-1" source="FHYOacyKZ1QeCpzFmi6C-103" target="FHYOacyKZ1QeCpzFmi6C-109">
          <mxGeometry relative="1" as="geometry" />
        </mxCell>
        <mxCell id="FHYOacyKZ1QeCpzFmi6C-103" value="Mode of Delivery" style="rhombus;whiteSpace=wrap;html=1;fillColor=#FF3E17;" vertex="1" parent="WIyWlLk6GJQsqaUBKTNV-1">
          <mxGeometry x="-977.5" y="890" width="105" height="85" as="geometry" />
        </mxCell>
        <mxCell id="FHYOacyKZ1QeCpzFmi6C-112" value="" style="edgeStyle=orthogonalEdgeStyle;rounded=0;orthogonalLoop=1;jettySize=auto;html=1;" edge="1" parent="WIyWlLk6GJQsqaUBKTNV-1" source="FHYOacyKZ1QeCpzFmi6C-105" target="FHYOacyKZ1QeCpzFmi6C-111">
          <mxGeometry relative="1" as="geometry" />
        </mxCell>
        <mxCell id="FHYOacyKZ1QeCpzFmi6C-105" value="Delivery" style="whiteSpace=wrap;html=1;fillColor=#00FF00;" vertex="1" parent="WIyWlLk6GJQsqaUBKTNV-1">
          <mxGeometry x="-1110" y="962.5" width="120" height="60" as="geometry" />
        </mxCell>
        <mxCell id="FHYOacyKZ1QeCpzFmi6C-109" value="&lt;span style=&quot;white-space: pre;&quot;&gt;&#x9;&lt;/span&gt;Pick up" style="whiteSpace=wrap;html=1;fillColor=#00FF00;" vertex="1" parent="WIyWlLk6GJQsqaUBKTNV-1">
          <mxGeometry x="-857" y="950" width="120" height="60" as="geometry" />
        </mxCell>
        <mxCell id="FHYOacyKZ1QeCpzFmi6C-114" value="" style="edgeStyle=orthogonalEdgeStyle;rounded=0;orthogonalLoop=1;jettySize=auto;html=1;" edge="1" parent="WIyWlLk6GJQsqaUBKTNV-1" source="FHYOacyKZ1QeCpzFmi6C-111">
          <mxGeometry relative="1" as="geometry">
            <mxPoint x="-790" y="1140" as="targetPoint" />
          </mxGeometry>
        </mxCell>
        <mxCell id="FHYOacyKZ1QeCpzFmi6C-111" value="Enter Delivery Delivery details" style="shape=parallelogram;perimeter=parallelogramPerimeter;whiteSpace=wrap;html=1;fixedSize=1;fillColor=#00FF00;" vertex="1" parent="WIyWlLk6GJQsqaUBKTNV-1">
          <mxGeometry x="-1111.25" y="1057.5" width="122.5" height="82.5" as="geometry" />
        </mxCell>
      </root>
    </mxGraphModel>
  </diagram>
</mxfile>
